{
  "accessors": [
    {
      "bufferView": 2,
      "componentType": 5126,
      "count": 65532,
      "max": [
        8.932130813598633,
        10.643879890441895,
        8.344030380249023
      ],
      "min": [
        0.28483009338378906,
        2.002716064453125e-05,
        0.0
      ],
      "type": "VEC3"
    },
    {
      "bufferView": 2,
      "byteOffset": 786384,
      "componentType": 5126,
      "count": 65532,
      "max": [
        0.9999962449073792,
        0.9999986290931702,
        0.9999863505363464
      ],
      "min": [
        -0.9999227523803711,
        -0.9999955296516418,
        -0.9999977350234985
      ],
      "type": "VEC3"
    },
    {
      "bufferView": 1,
      "componentType": 5126,
      "count": 65532,
      "max": [
        0.9990419745445251,
        0.9990460276603699
      ],
      "min": [
        0.0009537970181554556,
        0.0009534709970466793
      ],
      "type": "VEC2"
    },
    {
      "bufferView": 0,
      "componentType": 5125,
      "count": 374520,
      "type": "SCALAR"
    },
    {
      "bufferView": 2,
      "byteOffset": 1572768,
      "componentType": 5126,
      "count": 65532,
      "max": [
        9.02206039428711,
        10.643879890441895,
        8.344030380249023
      ],
      "min": [
        0.0,
        0.8629097938537598,
        0.0
      ],
      "type": "VEC3"
    },
    {
      "bufferView": 2,
      "byteOffset": 2359152,
      "componentType": 5126,
      "count": 65532,
      "max": [
        0.999792754650116,
        0.9999945163726807,
        0.9999863505363464
      ],
      "min": [
        -0.9999961256980896,
        -0.9999955296516418,
        -0.9999977350234985
      ],
      "type": "VEC3"
    },
    {
      "bufferView": 1,
      "byteOffset": 524256,
      "componentType": 5126,
      "count": 65532,
      "max": [
        0.9990419745445251,
        0.9990460276603699
      ],
      "min": [
        0.0009537970181554556,
        0.0009537970181554556
      ],
      "type": "VEC2"
    },
    {
      "bufferView": 0,
      "byteOffset": 1498080,
      "componentType": 5125,
      "count": 372540,
      "type": "SCALAR"
    },
    {
      "bufferView": 2,
      "byteOffset": 3145536,
      "componentType": 5126,
      "count": 6272,
      "max": [
        4.511030197143555,
        7.395205974578857,
        8.013540267944336
      ],
      "min": [
        1.2797203063964844,
        0.0,
        2.1284396648406982
      ],
      "type": "VEC3"
    },
    {
      "bufferView": 2,
      "byteOffset": 3220800,
      "componentType": 5126,
      "count": 6272,
      "max": [
        0.9568060040473938,
        0.9999986290931702,
        0.9687989950180054
      ],
      "min": [
        -0.9989723563194275,
        -0.9996085166931152,
        -0.9986704587936401
      ],
      "type": "VEC3"
    },
    {
      "bufferView": 1,
      "byteOffset": 1048512,
      "componentType": 5126,
      "count": 6272,
      "max": [
        0.8251309990882874,
        0.9374499917030334
      ],
      "min": [
        0.41762199997901917,
        0.5516809821128845
      ],
      "type": "VEC2"
    },
    {
      "bufferView": 0,
      "byteOffset": 2988240,
      "componentType": 5125,
      "count": 33300,
      "type": "SCALAR"
    }
  ],
  "asset": {
    "extras": {
      "author": "fpernudo (https://sketchfab.com/fpernudo)",
      "license": "CC-BY-NC-4.0 (http://creativecommons.org/licenses/by-nc/4.0/)",
      "source": "https://sketchfab.com/3d-models/anubis-ee75a8a3968a4a85971c70c743b4569b",
      "title": "Anubis"
    },
    "generator": "Sketchfab-12.68.0",
    "version": "2.0"
  },
  "bufferViews": [
    {
      "buffer": 0,
      "byteLength": 3121440,
      "name": "floatBufferViews",
      "target": 34963
    },
    {
      "buffer": 0,
      "byteLength": 1098688,
      "byteOffset": 3121440,
      "byteStride": 8,
      "name": "floatBufferViews",
      "target": 34962
    },
    {
      "buffer": 0,
      "byteLength": 3296064,
      "byteOffset": 4220128,
      "byteStride": 12,
      "name": "floatBufferViews",
      "target": 34962
    }
  ],
  "buffers": [
    {
      "byteLength": 7516192,
      "uri": "scene.bin"
    }
  ],
  "extensionsRequired": [
    "KHR_materials_pbrSpecularGlossiness"
  ],
  "extensionsUsed": [
    "KHR_materials_pbrSpecularGlossiness"
  ],
  "images": [
    {
      "uri": "textures/SculptMaterial_diffuse.png"
    }
  ],
  "materials": [
    {
      "doubleSided": true,
      "emissiveFactor": [
        0.7000000000000001,
        0.7000000000000001,
        0.7000000000000001
      ],
      "emissiveTexture": {
        "index": 0
      },
      "extensions": {
        "KHR_materials_pbrSpecularGlossiness": {
          "diffuseFactor": [
            1.0,
            1.0,
            1.0,
            1.0
          ],
          "diffuseTexture": {
            "index": 0
          },
          "glossinessFactor": 0.14,
          "specularFactor": [
            1.0,
            1.0,
            1.0
          ],
          "specularGlossinessTexture": {
            "index": 0
          }
        }
      },
      "name": "SculptMaterial"
    }
  ],
  "meshes": [
    {
      "name": "Object_0",
      "primitives": [
        {
          "attributes": {
            "NORMAL": 1,
            "POSITION": 0,
            "TEXCOORD_0": 2
          },
          "indices": 3,
          "material": 0,
          "mode": 4
        }
      ]
    },
    {
      "name": "Object_1",
      "primitives": [
        {
          "attributes": {
            "NORMAL": 5,
            "POSITION": 4,
            "TEXCOORD_0": 6
          },
          "indices": 7,
          "material": 0,
          "mode": 4
        }
      ]
    },
    {
      "name": "Object_2",
      "primitives": [
        {
          "attributes": {
            "NORMAL": 9,
            "POSITION": 8,
            "TEXCOORD_0": 10
          },
          "indices": 11,
          "material": 0,
          "mode": 4
        }
      ]
    }
  ],
  "nodes": [
    {
      "children": [
        1
      ],
      "matrix": [
        0.9958372712135315,
        -0.007637165952473899,
        0.09082834422588348,
        0.0,
        -0.028322340920567513,
        -0.9730838537216187,
        0.22870437800884225,
        0.0,
        0.08663694560527802,
        -0.2303248196840284,
        -0.9692494869232178,
        0.0,
        -0.07288461178541183,
        -2.528681993484498,
        3.178221702575683,
        1.0
      ],
      "name": "Sketchfab_model"
    },
    {
      "children": [
        2,
        3,
        4
      ],
      "matrix": [
        1.0,
        0.0,
        0.0,
        0.0,
        0.0,
        1.0,
        0.0,
        0.0,
        0.0,
        0.0,
        1.0,
        0.0,
        -4.511030197143555,
        -7.913179874420166,
        -4.177849769592285,
        1.0
      ],
      "name": "anubis.obj.cleaner.gles"
    },
    {
      "mesh": 0,
      "name": "Object_2"
    },
    {
      "mesh": 1,
      "name": "Object_3"
    },
    {
      "mesh": 2,
      "name": "Object_4"
    }
  ],
  "samplers": [
    {
      "magFilter": 9729,
      "minFilter": 9987,
      "wrapS": 10497,
      "wrapT": 10497
    }
  ],
  "scene": 0,
  "scenes": [
    {
      "name": "Sketchfab_Scene",
      "nodes": [
        0
      ]
    }
  ],
  "textures": [
    {
      "sampler": 0,
      "source": 0
    }
  ]
}
